<?xml version="1.0" encoding="UTF-8" standalone="no"?>
<!-- Created with Inkscape (http://www.inkscape.org/) -->

<svg
   xmlns:dc="http://purl.org/dc/elements/1.1/"
   xmlns:cc="http://creativecommons.org/ns#"
   xmlns:rdf="http://www.w3.org/1999/02/22-rdf-syntax-ns#"
   xmlns:svg="http://www.w3.org/2000/svg"
   xmlns="http://www.w3.org/2000/svg"
   xmlns:xlink="http://www.w3.org/1999/xlink"
   xmlns:sodipodi="http://sodipodi.sourceforge.net/DTD/sodipodi-0.dtd"
   xmlns:inkscape="http://www.inkscape.org/namespaces/inkscape"
   width="118"
   height="51"
   id="svg2"
   version="1.1"
   inkscape:version="0.47 r22583"
   sodipodi:docname="liblzg-logo.svg"
   inkscape:export-xdpi="97.629997"
   inkscape:export-ydpi="97.629997">
  <defs
     id="defs4">
    <linearGradient
       id="linearGradient3616">
      <stop
         style="stop-color:#77839e;stop-opacity:1;"
         offset="0"
         id="stop3618" />
      <stop
         id="stop3624"
         offset="0.63531601"
         style="stop-color:#838ea7;stop-opacity:1;" />
      <stop
         style="stop-color:#d9dce4;stop-opacity:1;"
         offset="0.81390715"
         id="stop3626" />
      <stop
         style="stop-color:#e7e9ee;stop-opacity:1;"
         offset="1"
         id="stop3620" />
    </linearGradient>
    <inkscape:perspective
       sodipodi:type="inkscape:persp3d"
       inkscape:vp_x="0 : 526.18109 : 1"
       inkscape:vp_y="0 : 1000 : 0"
       inkscape:vp_z="744.09448 : 526.18109 : 1"
       inkscape:persp3d-origin="372.04724 : 350.78739 : 1"
       id="perspective10" />
    <linearGradient
       inkscape:collect="always"
       xlink:href="#linearGradient3616"
       id="linearGradient3622"
       x1="63.717186"
       y1="44.927738"
       x2="63.717186"
       y2="-5.1522632"
       gradientUnits="userSpaceOnUse" />
    <linearGradient
       inkscape:collect="always"
       xlink:href="#linearGradient3616"
       id="linearGradient3662"
       gradientUnits="userSpaceOnUse"
       x1="63.717186"
       y1="44.927738"
       x2="63.717186"
       y2="-5.1522632" />
    <linearGradient
       inkscape:collect="always"
       xlink:href="#linearGradient3616"
       id="linearGradient3664"
       gradientUnits="userSpaceOnUse"
       x1="63.717186"
       y1="44.927738"
       x2="63.717186"
       y2="-5.1522632" />
    <linearGradient
       inkscape:collect="always"
       xlink:href="#linearGradient3616"
       id="linearGradient3666"
       gradientUnits="userSpaceOnUse"
       x1="63.717186"
       y1="44.927738"
       x2="63.717186"
       y2="-5.1522632" />
    <linearGradient
       inkscape:collect="always"
       xlink:href="#linearGradient3616"
       id="linearGradient3668"
       gradientUnits="userSpaceOnUse"
       x1="63.717186"
       y1="44.927738"
       x2="63.717186"
       y2="-5.1522632" />
    <linearGradient
       inkscape:collect="always"
       xlink:href="#linearGradient3616"
       id="linearGradient3670"
       gradientUnits="userSpaceOnUse"
       x1="63.717186"
       y1="44.927738"
       x2="63.717186"
       y2="-5.1522632" />
    <linearGradient
       inkscape:collect="always"
       xlink:href="#linearGradient3616"
       id="linearGradient3672"
       gradientUnits="userSpaceOnUse"
       x1="63.717186"
       y1="44.927738"
       x2="63.717186"
       y2="-5.1522632" />
    <linearGradient
       inkscape:collect="always"
       xlink:href="#linearGradient3616"
       id="linearGradient3674"
       gradientUnits="userSpaceOnUse"
       x1="63.717186"
       y1="44.927738"
       x2="63.717186"
       y2="-5.1522632" />
    <linearGradient
       inkscape:collect="always"
       xlink:href="#linearGradient3616"
       id="linearGradient3677"
       gradientUnits="userSpaceOnUse"
       x1="63.717186"
       y1="44.927738"
       x2="63.717186"
       y2="-5.1522632"
       gradientTransform="translate(0.7142857,995.1479)" />
    <linearGradient
       inkscape:collect="always"
       xlink:href="#linearGradient3616"
       id="linearGradient3680"
       gradientUnits="userSpaceOnUse"
       x1="63.717186"
       y1="44.927738"
       x2="63.717186"
       y2="-5.1522632"
       gradientTransform="translate(0.7142857,995.1479)" />
    <linearGradient
       inkscape:collect="always"
       xlink:href="#linearGradient3616"
       id="linearGradient3683"
       gradientUnits="userSpaceOnUse"
       x1="63.717186"
       y1="44.927738"
       x2="63.717186"
       y2="-5.1522632"
       gradientTransform="translate(0.7142857,995.1479)" />
    <linearGradient
       inkscape:collect="always"
       xlink:href="#linearGradient3616"
       id="linearGradient3686"
       gradientUnits="userSpaceOnUse"
       x1="63.717186"
       y1="44.927738"
       x2="63.717186"
       y2="-5.1522632"
       gradientTransform="translate(0.7142857,995.1479)" />
    <linearGradient
       inkscape:collect="always"
       xlink:href="#linearGradient3616"
       id="linearGradient3689"
       gradientUnits="userSpaceOnUse"
       x1="63.717186"
       y1="44.927738"
       x2="63.717186"
       y2="-5.1522632"
       gradientTransform="translate(0.7142857,995.1479)" />
    <linearGradient
       inkscape:collect="always"
       xlink:href="#linearGradient3616"
       id="linearGradient3692"
       gradientUnits="userSpaceOnUse"
       x1="63.717186"
       y1="44.927738"
       x2="63.717186"
       y2="-5.1522632"
       gradientTransform="translate(0.7142857,995.1479)" />
  </defs>
  <sodipodi:namedview
     id="base"
     pagecolor="#ffffff"
     bordercolor="#666666"
     borderopacity="1.0"
     inkscape:pageopacity="0.0"
     inkscape:pageshadow="2"
     inkscape:zoom="3.959798"
     inkscape:cx="63.249518"
     inkscape:cy="-5.4112377"
     inkscape:document-units="px"
     inkscape:current-layer="layer1"
     showgrid="false"
     inkscape:window-width="1312"
     inkscape:window-height="943"
     inkscape:window-x="31"
     inkscape:window-y="66"
     inkscape:window-maximized="0" />
  <metadata
     id="metadata7">
    <rdf:RDF>
      <cc:Work
         rdf:about="">
        <dc:format>image/svg+xml</dc:format>
        <dc:type
           rdf:resource="http://purl.org/dc/dcmitype/StillImage" />
        <dc:title></dc:title>
      </cc:Work>
    </rdf:RDF>
  </metadata>
  <g
     inkscape:label="Layer 1"
     inkscape:groupmode="layer"
     id="layer1"
     transform="translate(-4.9380357,-989.28992)">
    <path
       id="path3660"
       style="font-size:40px;font-style:normal;font-variant:normal;font-weight:bold;font-stretch:normal;text-align:start;line-height:125%;writing-mode:lr-tb;text-anchor:start;fill:url(#linearGradient3677);fill-opacity:1;stroke:#000000;stroke-opacity:1;font-family:Purisa;-inkscape-font-specification:Purisa Bold"
       d="m 100.50491,1019.5756 c -10e-6,1.3867 0.36,2.68 1.08001,3.88 0.74665,1.1734 1.67999,1.76 2.8,1.76 1.59998,0 3.35998,-0.7066 5.28,-2.12 1.94664,-1.4133 3.51998,-3.2 4.72,-5.36 0.69331,-1.2533 1.26664,-2.6666 1.72,-4.24 0.47997,-1.5733 0.71997,-2.7866 0.72,-3.64 -3e-5,-0.2666 -0.0267,-0.4533 -0.08,-0.56 -0.48003,-0.2399 -1.40003,-0.3599 -2.76001,-0.36 -1.20001,10e-5 -2.26668,0.1201 -3.19999,0.36 -2.34669,0.6401 -4.65335,2.1467 -6.92,4.52 -2.24001,2.3734 -3.36002,4.2934 -3.36001,5.76 m 15.60001,16.6 c 0.98664,0 1.47997,-0.4 1.47999,-1.2 -2e-5,-2.0533 -0.0667,-3.7466 -0.19999,-5.08 -0.13336,-1.3066 -0.30669,-2.4266 -0.52,-3.36 -0.18669,-0.9333 -0.30669,-1.68 -0.36,-2.24 -0.08,-1.2533 -0.17336,-2.2266 -0.28,-2.92 -0.74669,0.9867 -1.92003,2.08 -3.52001,3.28 -1.60001,1.1734 -2.96001,1.96 -4.08,2.36 -1.30667,0.4534 -2.73334,0.68 -4.28,0.68 -0.96,0 -1.74667,-0.1066 -2.36,-0.32 -0.58667,-0.2133 -1.32001,-0.68 -2.199999,-1.4 -0.826672,-0.6933 -1.426671,-1.3333 -1.8,-1.92 -0.34667,-0.6133 -0.613337,-1.4 -0.8,-2.36 -0.18667,-0.9866 -0.280003,-1.8266 -0.28,-2.52 -3e-6,-1.0666 0.49333,-2.4533 1.48,-4.16 0.986661,-1.7333 1.826659,-3.0266 2.519999,-3.88 0.64,-0.7999 1.8,-1.6799 3.48001,-2.64 1.67998,-0.9866 3.15998,-1.6666 4.44,-2.04 1.35998,-0.4266 2.90664,-0.6399 4.64,-0.64 2.15997,10e-5 3.95997,0.3601 5.39999,1.08 1.46665,0.7201 2.19998,1.8667 2.20001,3.44 -3e-5,0.8267 -0.20003,1.8134 -0.6,2.96 -0.37336,1.1201 -0.56003,2.0801 -0.56001,2.88 -2e-5,0.4801 0.0267,1.1734 0.08,2.08 0.08,0.88 0.19998,2.3734 0.36001,4.48 0.18664,2.08 0.34664,4.16 0.48,6.24 l 0.59999,8.28 -1.59999,1.28 c -0.8267,0.6934 -1.69336,1.04 -2.6,1.04 -1.60003,0 -3.52002,-0.36 -5.76,-1.08 -2.21335,-0.72 -4.13335,-1.5866 -5.76001,-2.6 -1.60001,-1.0133 -2.4,-1.88 -2.39999,-2.6 -10e-6,-0.9333 0.43999,-1.9333 1.31999,-3 0.90666,-1.0666 1.69333,-1.6 2.36,-1.6 1.01332,0 1.51999,0.3734 1.52001,1.12 -2e-5,0.32 -0.13335,0.72 -0.4,1.2 -0.26669,0.48 -0.40002,0.9067 -0.40001,1.28 -1e-5,0.56 0.45332,1.08 1.36001,1.56 0.93331,0.48 1.71998,0.72 2.35999,0.72 0.53332,0 1.27999,0.2667 2.24001,0.8 0.98664,0.5334 1.79997,0.8 2.44,0.8 m -38.298759,-6.32 c -1.25334,0 -1.880006,-0.3866 -1.88,-1.16 -6e-6,-0.5866 0.479993,-1.7333 1.44,-3.44 0.986658,-1.7333 1.746657,-2.88 2.28,-3.44 0.31999,-0.32 0.573323,-0.5866 0.76,-0.8 -0.133344,-0.027 -0.413343,-0.04 -0.84,-0.04 -0.400009,-0.027 -0.733342,-0.053 -1,-0.08 -0.240008,-0.027 -0.506675,-0.08 -0.8,-0.16 -0.293341,-0.08 -0.520007,-0.1866 -0.68,-0.32 -0.160007,-0.16 -0.240007,-0.36 -0.24,-0.6 -7e-6,-1.12 1.439992,-1.68 4.32,-1.68 0.986654,0 1.61332,-0.04 1.88,-0.12 0.29332,-0.08 0.57332,-0.28 0.84,-0.6 0.746652,-0.9066 1.333318,-1.8799 1.76,-2.92 0.453317,-1.0666 0.679984,-1.9199 0.68,-2.56 -1.6e-5,-0.2133 -0.01335,-0.3599 -0.04,-0.44 -0.106683,-0.027 -0.306683,-0.04 -0.6,-0.04 -1.306681,10e-5 -3.226679,0.3467 -5.76,1.04 -2.533341,0.6667 -4.026673,1.2401 -4.48,1.72 -0.373339,0.4801 -0.920005,0.7201 -1.64,0.72 -0.480003,10e-5 -0.90667,-0.1066 -1.28,-0.32 -0.373336,-0.2399 -0.560002,-0.5466 -0.56,-0.92 -2e-6,-0.2666 0.09333,-0.5066 0.28,-0.72 0.586664,-0.8266 2.239995,-1.7066 4.96,-2.64 2.71999,-0.9333 4.746655,-1.5466 6.08,-1.84 0.453319,-0.08 0.933319,-0.1199 1.44,-0.12 1.999983,1e-4 3.373315,0.3867 4.12,1.16 0.426647,0.4534 0.63998,1.1867 0.64,2.2 -2e-5,1.4667 -0.400019,3.0001 -1.2,4.6 l -0.6,1.16 0.76,0.08 c 1.546647,0.16 2.319979,0.5067 2.32,1.04 -2.1e-5,0.3467 -0.333354,0.6934 -1,1.04 -0.640019,0.32 -1.466685,0.5334 -2.48,0.64 -0.746683,0.08 -1.320016,0.2134 -1.72,0.4 -0.400015,0.1867 -0.946681,0.5867 -1.64,1.2 -0.58668,0.5334 -1.253346,1.2667 -2,2.2 -0.720011,0.9334 -1.226677,1.68 -1.52,2.24 4.853318,-0.8266 7.959982,-1.24 9.32,-1.24 1.866645,0 2.799977,0.4134 2.8,1.24 -2.3e-5,0.5067 -0.333356,0.9067 -1,1.2 -0.666688,0.2934 -1.813353,0.5734 -3.44,0.84 -5.573346,0.9867 -9.000009,1.48 -10.28,1.48 m -17.00875,-32.47996 c -4e-6,-1.94664 0.08,-3.43997 0.24,-4.48 0.159996,-1.03997 0.346662,-1.6933 0.56,-1.96 0.239995,-0.2933 0.559995,-0.43996 0.96,-0.44 0.639994,4e-5 1.02666,0.2667 1.16,0.8 0.133326,0.56003 0.413326,3.96003 0.84,10.19996 0.453325,6.2401 0.866658,12.3067 1.24,18.2 0.399991,5.8934 0.599991,8.9067 0.6,9.04 -9e-6,0.9334 -0.506676,1.4 -1.52,1.4 -0.746674,0 -1.25334,-0.3333 -1.52,-1 -0.346673,-0.8533 -0.693339,-3.7733 -1.04,-8.76 -0.533338,-7.0933 -0.960004,-12.5866 -1.28,-16.48 -0.160004,-2.2399 -0.240004,-4.41327 -0.24,-6.51996 m -11.80125,10.59996 c 0.479979,10e-5 1.013312,0.1201 1.6,0.36 0.586644,0.2401 1.186644,0.6134 1.8,1.12 0.613309,0.4801 1.119975,1.2134 1.52,2.2 0.399974,0.9601 0.599974,2.0667 0.6,3.32 -2.6e-5,1.8934 -0.440025,3.8267 -1.32,5.8 -0.880024,1.9734 -2.120022,3.6934 -3.72,5.16 -1.173353,1.04 -2.786685,2.08 -4.84,3.12 -2.026681,1.0134 -3.586679,1.52 -4.68,1.52 -1.306677,-0.027 -2.533342,-0.3866 -3.68,-1.08 -1.146673,-0.72 -1.773339,-1.3466 -1.88,-1.88 -0.08001,-0.3466 -0.226672,-2.9733 -0.44,-7.88 -0.213338,-4.9066 -0.493338,-8.4133 -0.84,-10.52 -0.720004,-4.4266 -1.080003,-7.9599 -1.08,-10.59996 -3e-6,-1.4933 0.493329,-2.4933 1.48,-3 0.186662,-0.10664 0.373328,-0.15997 0.56,-0.16 0.613327,3e-5 1.013327,0.45336 1.2,1.36 0.213326,0.88003 0.399993,2.54669 0.56,4.99996 0.159993,2.4534 0.386659,4.5867 0.68,6.4 0.426658,2.7201 0.679991,4.5601 0.76,5.52 l 0.08,1.12 2.52,-2.32 c 1.306654,-1.1999 2.386653,-2.0799 3.24,-2.64 0.853318,-0.5866 1.733317,-1.0133 2.64,-1.28 1.546648,-0.4266 2.626647,-0.6399 3.24,-0.64 m 2.16,7.28 c -2.3e-5,-2.4533 -0.760022,-3.6799 -2.28,-3.68 -0.586686,10e-5 -1.253352,0.067 -2,0.2 -0.453351,0.08 -1.346684,0.6134 -2.68,1.6 -1.333348,0.9867 -2.613346,2.1601 -3.84,3.52 -0.666678,0.72 -1.213344,1.72 -1.64,3 -0.40001,1.28 -0.600009,2.5467 -0.6,3.8 -9e-6,0.9334 0.11999,1.6934 0.36,2.28 0.266657,0.5867 0.51999,0.96 0.76,1.12 0.266656,0.16 0.506656,0.24 0.72,0.24 0.479988,0 1.133321,-0.12 1.96,-0.36 0.826653,-0.24 1.973318,-0.84 3.44,-1.8 1.466648,-0.9866 2.773314,-2.2533 3.92,-3.8 1.253311,-1.68 1.879977,-3.72 1.88,-6.12 m -29.869375,-8.4 c 0.453328,-0.3199 0.893328,-0.4799 1.32,-0.48 0.42666,1e-4 0.78666,0.1734 1.08,0.52 0.426659,0.8001 0.773325,3.1201 1.04,6.96 0.293325,3.84 0.439991,7.4267 0.44,10.76 -9e-6,2.4 -0.08001,3.76 -0.24,4.08 -0.533341,0.4267 -1.106674,0.64 -1.72,0.64 -0.933339,0 -1.506672,-0.28 -1.72,-0.84 -0.133338,-0.4266 -0.346671,-3.2 -0.64,-8.32 -0.266671,-5.1466 -0.400004,-8.5866 -0.4,-10.32 -4e-6,-1.6266 0.279996,-2.6266 0.84,-3 m -0.44,-9.35996 c 0.05333,-0.50664 0.266662,-0.91997 0.64,-1.24 0.399995,-0.31997 0.786661,-0.47997 1.16,-0.48 0.373327,3e-5 0.853326,0.17336 1.44,0.52 0.586659,0.3467 0.879992,0.81336 0.88,1.4 -8e-6,0.64003 -0.160008,1.21336 -0.48,1.72 -0.320008,0.50669 -0.746674,0.76006 -1.28,0.75996 -0.560006,10e-5 -1.093339,-0.25327 -1.6,-0.75996 -0.506671,-0.53331 -0.760004,-1.17331 -0.76,-1.92 m -13.4087503,-0.12 c -3.9e-6,-1.94664 0.079996,-3.43997 0.24,-4.48 0.1599957,-1.03997 0.3466622,-1.6933 0.56,-1.96 0.2399951,-0.2933 0.5599948,-0.43996 0.96,-0.44 0.6399937,4e-5 1.0266603,0.2667 1.1600003,0.8 0.133326,0.56003 0.413326,3.96003 0.84,10.19996 0.453325,6.2401 0.866658,12.3067 1.24,18.2 0.399991,5.8934 0.599991,8.9067 0.6,9.04 -9e-6,0.9334 -0.506676,1.4 -1.52,1.4 -0.746674,0 -1.25334,-0.3333 -1.5200003,-1 -0.3466728,-0.8533 -0.6933391,-3.7733 -1.04,-8.76 -0.5333382,-7.0933 -0.9600044,-12.5866 -1.28,-16.48 -0.160004,-2.2399 -0.2400039,-4.41327 -0.24,-6.51996" />
  </g>
</svg>
